<svg width="24" height="24" viewBox="0 0 24 24" fill="none" xmlns="http://www.w3.org/2000/svg">
<g id="Download">
<g id="Vector">
<path fill-rule="evenodd" clip-rule="evenodd" d="M1.86842 14.7935C2.34804 14.7935 2.73684 15.183 2.73684 15.6634V19.2302C2.73684 20.3513 3.64405 21.2601 4.76316 21.2601H19.2368C20.3559 21.2601 21.2632 20.3513 21.2632 19.2302V15.6634C21.2632 15.183 21.652 14.7935 22.1316 14.7935C22.6112 14.7935 23 15.183 23 15.6634V19.2302C23 21.3122 21.3152 23 19.2368 23H4.76316C2.68482 23 1 21.3122 1 19.2302V15.6634C1 15.183 1.38881 14.7935 1.86842 14.7935Z" fill="#0E0E0E"/>
<path fill-rule="evenodd" clip-rule="evenodd" d="M12 1C12.4796 1 12.8684 1.38949 12.8684 1.86995V17.558C12.8684 18.0385 12.4796 18.4279 12 18.4279C11.5204 18.4279 11.1316 18.0385 11.1316 17.558V1.86995C11.1316 1.38949 11.5204 1 12 1Z" fill="#0E0E0E"/>
<path fill-rule="evenodd" clip-rule="evenodd" d="M4.94039 11.4042C5.27952 11.0645 5.82938 11.0645 6.16852 11.4042L11.9318 17.1776C11.9695 17.2154 12.0306 17.2154 12.0683 17.1776L17.8316 11.4042C18.1708 11.0645 18.7206 11.0645 19.0597 11.4042C19.3989 11.7439 19.3989 12.2947 19.0597 12.6345L13.2964 18.4079C12.5805 19.1251 11.4197 19.1251 10.7037 18.4079L4.94039 12.6345C4.60125 12.2947 4.60125 11.7439 4.94039 11.4042Z" fill="#0E0E0E"/>
</g>
</g>
</svg>
