<?xml version="1.0" encoding="UTF-8"?>
<svg id="Capa_1" data-name="Capa 1" xmlns="http://www.w3.org/2000/svg" viewBox="0 0 220.4 89.29">
  <defs>
    <style>
      .cls-1 {
        fill: #fafcff;
      }
    </style>
  </defs>
  <g>
    <path class="cls-1" d="M20.24,14.66h50.75c3.08,0,5,3.33,3.46,5.99-4.64,8.02-12.59,21.8-18.18,31.5-1.4,2.44-4.54,3.23-6.94,1.76h0c-2.3-1.42-3.06-4.41-1.71-6.75l9.51-16.51c1.54-2.67-.39-6-3.46-6H20.24c-2.76,0-5-2.24-5-5h0c0-2.76,2.24-5,5-5Z"/>
    <path class="cls-1" d="M69.16,74.65H18.41c-3.08,0-5-3.33-3.46-5.99,4.64-8.02,12.59-21.8,18.18-31.5,1.4-2.44,4.54-3.23,6.94-1.76h0c2.3,1.42,3.06,4.41,1.71,6.75l-9.51,16.51c-1.54,2.67.39,6,3.46,6h33.44c2.76,0,5,2.24,5,5h0c0,2.76-2.24,5-5,5Z"/>
  </g>
  <path class="cls-1" d="M104.68,29.67l-6.93,12-6.93-12h-5.77l10.97,19c.77,1.33,2.69,1.33,3.46,0l10.97-19h-5.77Z"/>
  <path class="cls-1" d="M117.75,49.67h-5v-20h5v20Z"/>
  <path class="cls-1" d="M152.75,49.67h-5v-20h5v20Z"/>
  <path class="cls-1" d="M135.22,37.18c4.87,0,7.5,2.3,7.5,5.94,0,4.1-2.48,6.55-8.58,6.55h-13.91l2.89-5h12.54c1.46,0,2.12-.18,2.12-1.23s-.66-1.28-2.12-1.28h-5.41c-5.14,0-7.5-2.83-7.5-6.27,0-3.77,2.51-6.22,8.58-6.22h13.74l-2.89,5h-12.18c-1.43,0-2.29.27-2.29,1.29s.69,1.22,2.12,1.22h5.38Z"/>
  <path class="cls-1" d="M180.22,39.65c0,6.92-4.18,10.01-12.47,10.01s-12.47-3.1-12.47-10.01,4.16-9.99,12.47-9.99,12.47,3.07,12.47,9.99ZM175.24,39.65c0-4.17-2.18-4.95-7.48-4.95s-7.48.78-7.48,4.95,2.18,4.98,7.48,4.98,7.48-.81,7.48-4.98Z"/>
  <path class="cls-1" d="M199.57,48.62l-11.81-10.65v11.69h-4.98v-16.38c0-2.58,1.56-3.62,3.27-3.62.72,0,1.45.17,2.4,1.04l11.76,10.65v-11.69h5.07v16.35c0,2.58-1.56,3.65-3.3,3.65-.75,0-1.48-.17-2.4-1.04Z"/>
  <rect class="cls-1" x="90.37" y="54.67" width="1.19" height="5"/>
  <rect class="cls-1" x="126.13" y="54.67" width="1.19" height="5"/>
  <polygon class="cls-1" points="96.32 57.53 97.96 54.67 99.15 54.67 99.15 59.67 97.97 59.67 97.97 56.81 96.33 59.67 94.66 56.8 94.66 59.67 93.48 59.67 93.48 54.67 94.69 54.67 96.32 57.53"/>
  <polygon class="cls-1" points="103.91 57.53 105.55 54.67 106.75 54.67 106.75 59.67 105.57 59.67 105.57 56.81 103.92 59.67 102.25 56.8 102.25 59.67 101.07 59.67 101.07 54.67 102.28 54.67 103.91 57.53"/>
  <polygon class="cls-1" points="109.85 57.7 111.81 57.7 111.81 56.65 109.85 56.64 109.85 55.76 112.64 55.76 112.64 54.67 108.67 54.67 108.67 59.67 112.64 59.67 112.64 58.58 109.85 58.58 109.85 57.7"/>
  <polygon class="cls-1" points="136.2 57.7 138.16 57.7 138.16 56.65 136.2 56.64 136.2 55.76 138.99 55.76 138.99 54.67 135.02 54.67 135.02 59.67 138.99 59.67 138.99 58.58 136.2 58.58 136.2 57.7"/>
  <path class="cls-1" d="M118.85,56.29c0-.99-.73-1.61-1.9-1.61h-2.38v5h1.19v-1.84h.71s1.05,1.82,1.05,1.82l.02.02h1.22l-1.12-1.85c1.18-.3,1.22-1,1.22-1.54ZM117.03,56.83h-1.28v-1.08h1.28c.39,0,.61.19.61.54s-.22.54-.61.54Z"/>
  <path class="cls-1" d="M123.11,56.72l-.65-.14c-.46-.1-.63-.22-.64-.45,0-.08.03-.16.09-.22.13-.13.37-.2.68-.2h0c.41,0,.81.12,1.24.37l.1.06.51-.89.03-.05-.05-.03c-.55-.33-1.26-.51-1.92-.51,0,0,0,0,0,0-.52,0-1.01.13-1.36.39-.36.27-.56.63-.56,1.04,0,.79.49,1.27,1.54,1.5l.59.13c.6.13.7.24.69.46-.02.27-.31.43-.79.43h0c-.53,0-1.11-.16-1.57-.43l-.12-.07-.52.9-.03.05.05.03c.57.35,1.39.56,2.15.56h0c.7,0,1.28-.19,1.65-.56.25-.25.38-.57.38-.91,0-.79-.46-1.25-1.5-1.47Z"/>
  <polygon class="cls-1" points="131.17 59.67 128.28 54.67 129.6 54.67 131.17 57.38 132.76 54.67 134.06 54.67 131.17 59.67"/>
  <polygon class="cls-1" points="191.09 56.63 188.89 56.63 188.89 54.67 187.71 54.67 187.71 59.67 188.89 59.67 188.89 57.71 191.08 57.71 191.09 59.62 191.09 59.67 192.28 59.67 192.28 54.67 191.09 54.67 191.09 56.63"/>
  <path class="cls-1" d="M197.76,57.24c0,.96-.38,1.32-1.19,1.32s-1.19-.37-1.19-1.33v-2.56h-1.19v2.56c0,1.61.87,2.44,2.39,2.44s2.4-.83,2.4-2.43v-2.57h-1.21v2.57Z"/>
  <path class="cls-1" d="M204.45,56.98c.19-.12.49-.4.49-.98,0-.84-.63-1.32-1.74-1.32h-2.32v5h2.58c1.14,0,1.74-.49,1.74-1.42,0-.76-.38-1.11-.74-1.28ZM203.18,56.5h-1.15v-.74h1.14c.54,0,.6.21.6.37,0,.33-.37.38-.59.38ZM204.03,58.08c0,.34-.2.51-.61.51h-1.39v-1.02h1.39c.22,0,.39.05.49.16.08.09.12.2.12.35Z"/>
  <rect class="cls-1" x="162.19" y="54.67" width="1.19" height="5"/>
  <rect class="cls-1" x="152.7" y="54.67" width="1.19" height="5"/>
  <path class="cls-1" d="M148.23,54.67h-1.74v5h1.72c1.74,0,2.9-1,2.9-2.49,0-.67-.24-1.27-.69-1.71-.52-.52-1.28-.8-2.19-.8ZM147.67,58.59v-2.84h.53c1.13.01,1.73.51,1.73,1.44s-.58,1.39-1.72,1.4h-.53Z"/>
  <path class="cls-1" d="M159.14,58.1c-.24.3-.66.5-1.09.5-.82,0-1.44-.61-1.44-1.43s.62-1.43,1.44-1.43c.45,0,.87.19,1.14.53l.03.04.88-.69-.04-.04c-.48-.58-1.22-.91-2.01-.91-1.45,0-2.58,1.1-2.58,2.5s1.13,2.5,2.58,2.5c.88,0,1.71-.45,2.22-1.19h0v-1.36h-1.14v.98Z"/>
  <polygon class="cls-1" points="169.55 54.67 165.27 54.67 165.28 55.76 166.83 55.76 166.83 59.67 168 59.67 168 55.76 169.55 55.76 169.55 54.67"/>
  <polygon class="cls-1" points="177.75 54.73 177.75 54.67 176.56 54.67 176.56 59.67 180.22 59.67 180.22 58.58 177.75 58.58 177.75 54.73"/>
  <path class="cls-1" d="M175.17,59.68l-2.9-5-2.89,5h1.3l.43-.74h2.29s.43.74.43.74h1.33ZM171.71,57.94l.57-.97.56.97h-1.13Z"/>
</svg>