<svg version="1.2" xmlns="http://www.w3.org/2000/svg" viewBox="0 0 20 19" width="20" height="19"><style>.a{fill:#fff}</style><path class="a" d="m9 2c-2.2 0-4 1.8-4 4q0 0 0 0.1c0 0.5-0.3 0.9-0.7 1-1.3 0.3-2.3 1.5-2.3 2.9 0 1.7 1.3 3 3 3h1c0.6 0 1 0.4 1 1 0 0.6-0.4 1-1 1h-1c-2.8 0-5-2.2-5-5 0-2.1 1.2-3.8 3-4.6 0.3-3 2.9-5.4 6-5.4 2.2 0 4.2 1.2 5.2 3 3.2 0.1 5.8 2.8 5.8 6 0 3.3-2.7 6-6 6-0.6 0-1-0.4-1-1 0-0.6 0.4-1 1-1 2.2 0 4-1.8 4-4 0-2.2-1.8-4-4-4q-0.2 0-0.3 0c-0.5 0-0.9-0.2-1-0.6-0.6-1.4-2.1-2.4-3.7-2.4zm0.3 5.3c0.4-0.4 1-0.4 1.4 0l2 2c0.4 0.4 0.4 1 0 1.4-0.4 0.4-1 0.4-1.4 0l-0.3-0.3v7.6c0 0.6-0.4 1-1 1-0.6 0-1-0.4-1-1v-7.6l-0.3 0.3c-0.4 0.4-1 0.4-1.4 0-0.4-0.4-0.4-1 0-1.4z"/></svg>