<svg width="16" height="16" viewBox="0 0 16 16" fill="none" xmlns="http://www.w3.org/2000/svg">
<rect width="16" height="16" rx="8" fill="#FF9E0E"/>
<path fill-rule="evenodd" clip-rule="evenodd" d="M8.00016 4C8.36835 4 8.66683 4.29848 8.66683 4.66667V8.48667C8.66683 8.85486 8.36835 9.15333 8.00016 9.15333C7.63197 9.15333 7.3335 8.85486 7.3335 8.48667V4.66667C7.3335 4.29848 7.63197 4 8.00016 4Z" fill="#0E0E0E"/>
<path fill-rule="evenodd" clip-rule="evenodd" d="M8.00016 10.6667C8.36835 10.6667 8.66683 10.9651 8.66683 11.3333V12C8.66683 12.3682 8.36835 12.6667 8.00016 12.6667C7.63197 12.6667 7.3335 12.3682 7.3335 12V11.3333C7.3335 10.9651 7.63197 10.6667 8.00016 10.6667Z" fill="#0E0E0E"/>
</svg>
