<svg width="151" height="96" viewBox="0 0 151 96" fill="none" xmlns="http://www.w3.org/2000/svg">
<mask id="mask0_1139_1532" style="mask-type:alpha" maskUnits="userSpaceOnUse" x="0" y="0" width="151" height="96">
<path d="M122.4 1.61443C122.469 2.02952 122.098 2.93686 121.954 3.37097C119.735 10.0821 119.387 16.4409 121.708 23.2491C123.616 29.1248 127.433 35.649 134.628 33.7712C137.035 33.1433 135.253 28.9176 134.771 27.4295C134.056 25.2203 133.17 22.9711 132.308 20.8192C136.582 24.2933 144.441 30.1242 145.72 35.8333C146.443 39.0592 145.109 46.4859 144.414 49.7876C143.711 53.1235 142.804 56.488 142.561 59.971C142.377 62.5892 142.084 65.8587 142.835 68.4135C143.487 70.6285 145.23 71.9083 146.727 73.5818C147.576 74.531 148.3 75.5839 148.883 76.7155C150.147 79.1338 150.567 81.6453 150.361 84.3529C149.997 89.1343 146.015 92.4834 142.038 94.4629C142.107 94.3984 142.173 94.3329 142.239 94.2664C145.207 91.2668 148.556 85.6427 146.966 81.2162C145.993 78.5112 144.033 75.1574 141.975 73.1682C142.363 81.7195 141.06 89.4881 133.17 94.7496C132.782 95.0084 132.515 95.0942 132.08 94.9686C131.142 94.0843 130.614 90.9073 129.624 89.2495C127.536 85.753 123.553 83.8047 119.809 82.7307C121.865 88.3194 121.635 89.8588 116.931 93.4642C116.701 92.0857 116.458 90.7091 116.204 89.3346C113.924 91.0258 112.344 92.0346 109.714 93.1676C106.919 94.1458 105.073 94.4119 102.196 94.7671C102.828 94.0576 103.544 93.3155 103.484 92.2602C103.198 87.297 97.4826 83.8805 94.272 80.7115C92.0243 78.4935 89.8331 76.7768 87.8091 74.3736C83.1706 69.1923 82.8591 66.1151 83.1306 59.4476C83.321 54.7718 85.4336 51.7128 88.9039 48.6748C89.5678 52.0778 90.4203 57.01 91.4856 60.1678C92.0148 57.4946 92.0472 53.6995 92.9333 51.1651C94.2019 47.5358 95.915 45.2677 96.6167 41.1951C97.1702 37.9773 96.7985 36.2644 96.7823 33.1243C96.7715 31.0836 97.0085 28.1662 97.2469 26.1314C100.359 28.0311 106.417 33.614 106.147 37.4217C105.677 44.0414 104.603 50.7987 105.418 57.5554C105.923 61.746 111.49 63.9152 115.107 64.4273C118.337 64.8845 121.752 63.6212 123.386 60.6901C124.517 58.7624 125.936 54.1495 125.112 51.8939C122.42 44.519 116.742 37.509 113.683 30.3296C111.525 25.2686 111.094 16.6303 113.3 11.676C114.822 8.25759 119.503 3.98795 122.4 1.61443Z" fill="#171717"/>
<path d="M47.4641 0C48.3271 0.820969 50.0297 3.24312 50.7013 4.27763C53.4244 8.47243 55.7587 13.2544 56.5501 18.2205C56.7965 19.7348 56.8843 21.2707 56.8121 22.8032C56.7075 24.7748 56.2692 27.0856 55.9482 29.0706C55.306 33.041 54.731 37.0792 53.3153 40.8606C52.311 43.5325 50.9391 46.0508 49.2393 48.3429C44.8022 54.424 38.2461 59.2612 34.8487 66.3877C33.7386 68.7162 32.8469 71.683 32.565 74.2607C32.3906 75.8546 32.4037 77.8645 32.0825 79.3809C31.6028 81.7238 30.2048 83.7762 28.2015 85.0784C27.6668 84.4141 25.4389 81.1036 24.4158 81.8894C22.8921 83.0594 23.4008 87.6236 22.9388 89.4919C22.6893 90.5011 22.7013 91.395 22.1933 92.3472C20.6424 95.9343 14.5274 96.911 11.6424 94.4888C10.5581 93.5785 9.59146 92.6202 8.25415 91.9983L8.06628 91.9119C7.02175 96.4553 2.91259 94.2083 1.60625 91.2319C0.48496 88.6774 1.65837 86.7992 2.59139 84.4745C3.30799 82.7173 3.75941 80.8629 3.93058 78.9724C4.50833 73.1903 2.23706 70.1974 0 64.9825C0.864201 65.3292 1.7214 65.6933 2.57092 66.0747C11.4264 70.7933 5.47004 79.6193 8.72618 86.2938C9.55766 86.9489 12.1464 88.3222 13.2224 88.1783C14.5132 87.0405 13.1775 81.1291 12.9392 79.3175C11.9111 71.5071 9.90835 63.4647 10.5019 55.5495C10.7072 52.8106 12.5195 49.2626 13.6146 46.7304C18.6783 35.6347 23.6021 31.3776 33.0557 24.0291C31.8855 26.6865 30.3486 30.1101 29.5376 33.1039C29.0488 34.9088 27.5027 41.8788 28.3072 43.8306C28.3845 44.018 28.7958 44.3087 29.0732 44.3018C30.4963 44.2658 33.1844 41.9365 34.1522 41.0515C39.1997 36.435 43.2989 31.5677 45.6633 25.0632C46.1823 23.6351 46.7996 20.4572 47.1087 18.9357C47.664 16.2026 48.1674 12.7663 48.1491 9.99404C48.1271 6.66261 47.2764 3.39187 47.4641 0Z" fill="#171717"/>
<path d="M74.5457 34.0331L74.6172 34.2409C73.4165 35.7553 71.422 39.6735 70.8695 41.4911C69.0842 47.5684 72.5548 54.5318 73.4268 60.4263C74.5962 68.3309 75.3995 75.9379 79.1201 83.1668C80.8593 86.546 85.9213 92.0347 89.6473 93.1473C91.9421 92.569 92.5711 92.1535 93.8558 90.1885C94.408 94.1439 94.1023 94.8127 90.256 95.3517C83.0982 96.3549 78.2734 90.475 71.6197 89.5553C69.7956 90.3746 69.2673 91.3728 67.7189 92.4394L67.4388 92.3232C65.4726 89.7311 68.4162 84.1434 69.8411 81.6975C68.2536 81.9698 66.3506 82.6941 64.9006 83.3892C62.2178 84.6752 61.6193 89.1378 60.7979 91.8688L60.1088 94.1183C58.9925 93.0963 56.351 89.8662 55.23 88.5466C54.4794 91.6059 53.0903 94.2772 49.7034 94.8977C48.7031 95.0809 47.1933 94.76 46.4201 94.0565C42.2237 90.2388 40.0754 83.5866 38.9569 78.1348C37.4709 70.0095 40.9658 65.8882 45.3827 59.737C44.821 62.5885 44.5402 67.0609 46.8309 69.1946C48.5975 69.397 49.7662 68.9877 50.979 67.5791C53.8943 64.1929 55.455 58.2626 55.8439 53.8857C56.0298 51.7942 55.5871 48.9158 55.5124 46.7877C56.3426 47.991 59.5992 51.5137 60.7257 52.7555C64.4449 43.5116 65.7049 39.2779 74.5457 34.0331Z" fill="#171717"/>
</mask>
<g mask="url(#mask0_1139_1532)">
<path d="M17.5996 -8.42649C-8.00887 -16.1065 -15.2646 2.45352 -15.6914 12.6935V108.054H184.695V1.17352C180 -2.02648 167.921 -8.42649 157.166 -8.42649C143.721 -8.42649 137.959 5.01352 128.356 5.01352C118.753 5.01352 115.552 -8.42649 106.589 -4.58648C97.6261 -0.746484 84.1816 -2.02648 75.2186 -4.58648C66.2557 -7.14648 68.1763 -8.42649 56.6525 -2.02648C45.1287 4.37352 49.6102 1.17351 17.5996 -8.42649Z" fill="#BF313A"/>
</g>
</svg>
