<?xml version="1.0" encoding="UTF-8" standalone="no"?>
<!-- Created with Inkscape (http://www.inkscape.org/) -->

<svg
   width="31.810848mm"
   height="7.9427891mm"
   viewBox="0 0 31.810848 7.9427891"
   version="1.1"
   id="svg1"
   xml:space="preserve"
   inkscape:export-filename="LOGO C.svg"
   inkscape:export-xdpi="96"
   inkscape:export-ydpi="96"
   xmlns:inkscape="http://www.inkscape.org/namespaces/inkscape"
   xmlns:sodipodi="http://sodipodi.sourceforge.net/DTD/sodipodi-0.dtd"
   xmlns="http://www.w3.org/2000/svg"
   xmlns:svg="http://www.w3.org/2000/svg"><sodipodi:namedview
     id="namedview1"
     pagecolor="#ffffff"
     bordercolor="#000000"
     borderopacity="0.25"
     inkscape:showpageshadow="2"
     inkscape:pageopacity="0.0"
     inkscape:pagecheckerboard="0"
     inkscape:deskcolor="#d1d1d1"
     inkscape:document-units="mm" /><defs
     id="defs1"><style
       id="style1">
      .cls-1 {
        fill: #fafcff;
      }

      .cls-2 {
        fill: #0374b7;
      }
    </style><style
       id="style1-6">
      .cls-1 {
        fill: #fafcff;
      }

      .cls-2 {
        fill: #0374b7;
      }
    </style></defs><g
     inkscape:label="Capa 1"
     inkscape:groupmode="layer"
     id="layer1"
     transform="translate(-81.2745,-89.973424)"><g
       id="g1"
       transform="matrix(0.26458333,0,0,0.26458333,58.771683,82.125884)"><path
         class="cls-1"
         d="m 104.68,29.67 -6.93,12 -6.93,-12 h -5.77 l 10.97,19 c 0.77,1.33 2.69,1.33 3.46,0 l 10.97,-19 z"
         id="path3" /><path
         class="cls-1"
         d="m 117.75,49.67 h -5 v -20 h 5 z"
         id="path4" /><path
         class="cls-1"
         d="m 152.75,49.67 h -5 v -20 h 5 z"
         id="path5" /><path
         class="cls-1"
         d="m 135.22,37.18 c 4.87,0 7.5,2.3 7.5,5.94 0,4.1 -2.48,6.55 -8.58,6.55 h -13.91 l 2.89,-5 h 12.54 c 1.46,0 2.12,-0.18 2.12,-1.23 0,-1.05 -0.66,-1.28 -2.12,-1.28 h -5.41 c -5.14,0 -7.5,-2.83 -7.5,-6.27 0,-3.77 2.51,-6.22 8.58,-6.22 h 13.74 l -2.89,5 H 130 c -1.43,0 -2.29,0.27 -2.29,1.29 0,1.02 0.69,1.22 2.12,1.22 h 5.38 z"
         id="path6" /><path
         class="cls-1"
         d="m 180.22,39.65 c 0,6.92 -4.18,10.01 -12.47,10.01 -8.29,0 -12.47,-3.1 -12.47,-10.01 0,-6.91 4.16,-9.99 12.47,-9.99 8.31,0 12.47,3.07 12.47,9.99 z m -4.98,0 c 0,-4.17 -2.18,-4.95 -7.48,-4.95 -5.3,0 -7.48,0.78 -7.48,4.95 0,4.17 2.18,4.98 7.48,4.98 5.3,0 7.48,-0.81 7.48,-4.98 z"
         id="path7" /><path
         class="cls-1"
         d="M 199.57,48.62 187.76,37.97 v 11.69 h -4.98 V 33.28 c 0,-2.58 1.56,-3.62 3.27,-3.62 0.72,0 1.45,0.17 2.4,1.04 l 11.76,10.65 V 29.66 h 5.07 v 16.35 c 0,2.58 -1.56,3.65 -3.3,3.65 -0.75,0 -1.48,-0.17 -2.4,-1.04 z"
         id="path8" /><rect
         class="cls-1"
         x="90.370003"
         y="54.669998"
         width="1.1900001"
         height="5"
         id="rect8" /><rect
         class="cls-1"
         x="126.13"
         y="54.669998"
         width="1.1900001"
         height="5"
         id="rect9" /><polygon
         class="cls-1"
         points="97.97,59.67 97.97,56.81 96.33,59.67 94.66,56.8 94.66,59.67 93.48,59.67 93.48,54.67 94.69,54.67 96.32,57.53 97.96,54.67 99.15,54.67 99.15,59.67 "
         id="polygon9" /><polygon
         class="cls-1"
         points="105.57,59.67 105.57,56.81 103.92,59.67 102.25,56.8 102.25,59.67 101.07,59.67 101.07,54.67 102.28,54.67 103.91,57.53 105.55,54.67 106.75,54.67 106.75,59.67 "
         id="polygon10" /><polygon
         class="cls-1"
         points="109.85,55.76 112.64,55.76 112.64,54.67 108.67,54.67 108.67,59.67 112.64,59.67 112.64,58.58 109.85,58.58 109.85,57.7 111.81,57.7 111.81,56.65 109.85,56.64 "
         id="polygon11" /><polygon
         class="cls-1"
         points="136.2,55.76 138.99,55.76 138.99,54.67 135.02,54.67 135.02,59.67 138.99,59.67 138.99,58.58 136.2,58.58 136.2,57.7 138.16,57.7 138.16,56.65 136.2,56.64 "
         id="polygon12" /><path
         class="cls-1"
         d="m 118.85,56.29 c 0,-0.99 -0.73,-1.61 -1.9,-1.61 h -2.38 v 5 h 1.19 v -1.84 h 0.71 c 0,0 1.05,1.82 1.05,1.82 l 0.02,0.02 h 1.22 l -1.12,-1.85 c 1.18,-0.3 1.22,-1 1.22,-1.54 z m -1.82,0.54 h -1.28 v -1.08 h 1.28 c 0.39,0 0.61,0.19 0.61,0.54 0,0.35 -0.22,0.54 -0.61,0.54 z"
         id="path12" /><path
         class="cls-1"
         d="m 123.11,56.72 -0.65,-0.14 c -0.46,-0.1 -0.63,-0.22 -0.64,-0.45 0,-0.08 0.03,-0.16 0.09,-0.22 0.13,-0.13 0.37,-0.2 0.68,-0.2 v 0 c 0.41,0 0.81,0.12 1.24,0.37 l 0.1,0.06 0.51,-0.89 0.03,-0.05 -0.05,-0.03 c -0.55,-0.33 -1.26,-0.51 -1.92,-0.51 0,0 0,0 0,0 -0.52,0 -1.01,0.13 -1.36,0.39 -0.36,0.27 -0.56,0.63 -0.56,1.04 0,0.79 0.49,1.27 1.54,1.5 l 0.59,0.13 c 0.6,0.13 0.7,0.24 0.69,0.46 -0.02,0.27 -0.31,0.43 -0.79,0.43 v 0 c -0.53,0 -1.11,-0.16 -1.57,-0.43 l -0.12,-0.07 -0.52,0.9 -0.03,0.05 0.05,0.03 c 0.57,0.35 1.39,0.56 2.15,0.56 v 0 c 0.7,0 1.28,-0.19 1.65,-0.56 0.25,-0.25 0.38,-0.57 0.38,-0.91 0,-0.79 -0.46,-1.25 -1.5,-1.47 z"
         id="path13" /><polygon
         class="cls-1"
         points="132.76,54.67 134.06,54.67 131.17,59.67 128.28,54.67 129.6,54.67 131.17,57.38 "
         id="polygon13" /><polygon
         class="cls-1"
         points="187.71,59.67 188.89,59.67 188.89,57.71 191.08,57.71 191.09,59.62 191.09,59.67 192.28,59.67 192.28,54.67 191.09,54.67 191.09,56.63 188.89,56.63 188.89,54.67 187.71,54.67 "
         id="polygon14" /><path
         class="cls-1"
         d="m 197.76,57.24 c 0,0.96 -0.38,1.32 -1.19,1.32 -0.81,0 -1.19,-0.37 -1.19,-1.33 v -2.56 h -1.19 v 2.56 c 0,1.61 0.87,2.44 2.39,2.44 1.52,0 2.4,-0.83 2.4,-2.43 v -2.57 h -1.21 v 2.57 z"
         id="path14" /><path
         class="cls-1"
         d="m 204.45,56.98 c 0.19,-0.12 0.49,-0.4 0.49,-0.98 0,-0.84 -0.63,-1.32 -1.74,-1.32 h -2.32 v 5 h 2.58 c 1.14,0 1.74,-0.49 1.74,-1.42 0,-0.76 -0.38,-1.11 -0.74,-1.28 z m -1.27,-0.48 h -1.15 v -0.74 h 1.14 c 0.54,0 0.6,0.21 0.6,0.37 0,0.33 -0.37,0.38 -0.59,0.38 z m 0.85,1.58 c 0,0.34 -0.2,0.51 -0.61,0.51 h -1.39 v -1.02 h 1.39 c 0.22,0 0.39,0.05 0.49,0.16 0.08,0.09 0.12,0.2 0.12,0.35 z"
         id="path15" /><rect
         class="cls-1"
         x="162.19"
         y="54.669998"
         width="1.1900001"
         height="5"
         id="rect15" /><rect
         class="cls-1"
         x="152.7"
         y="54.669998"
         width="1.1900001"
         height="5"
         id="rect16" /><path
         class="cls-1"
         d="m 148.23,54.67 h -1.74 v 5 h 1.72 c 1.74,0 2.9,-1 2.9,-2.49 0,-0.67 -0.24,-1.27 -0.69,-1.71 -0.52,-0.52 -1.28,-0.8 -2.19,-0.8 z m -0.56,3.92 v -2.84 h 0.53 c 1.13,0.01 1.73,0.51 1.73,1.44 0,0.93 -0.58,1.39 -1.72,1.4 h -0.53 z"
         id="path16" /><path
         class="cls-1"
         d="m 159.14,58.1 c -0.24,0.3 -0.66,0.5 -1.09,0.5 -0.82,0 -1.44,-0.61 -1.44,-1.43 0,-0.82 0.62,-1.43 1.44,-1.43 0.45,0 0.87,0.19 1.14,0.53 l 0.03,0.04 0.88,-0.69 -0.04,-0.04 c -0.48,-0.58 -1.22,-0.91 -2.01,-0.91 -1.45,0 -2.58,1.1 -2.58,2.5 0,1.4 1.13,2.5 2.58,2.5 0.88,0 1.71,-0.45 2.22,-1.19 v 0 -1.36 h -1.14 v 0.98 z"
         id="path17" /><polygon
         class="cls-1"
         points="166.83,59.67 168,59.67 168,55.76 169.55,55.76 169.55,54.67 165.27,54.67 165.28,55.76 166.83,55.76 "
         id="polygon17" /><polygon
         class="cls-1"
         points="180.22,59.67 180.22,58.58 177.75,58.58 177.75,54.73 177.75,54.67 176.56,54.67 176.56,59.67 "
         id="polygon18" /><path
         class="cls-1"
         d="m 175.17,59.68 -2.9,-5 -2.89,5 h 1.3 l 0.43,-0.74 h 2.29 c 0,0 0.43,0.74 0.43,0.74 h 1.33 z m -3.46,-1.74 0.57,-0.97 0.56,0.97 z"
         id="path18" /></g></g></svg>
