<svg width="27" height="24" viewBox="0 0 27 24" fill="none" xmlns="http://www.w3.org/2000/svg">
<path d="M0 18.5C0 17.6716 0.671573 17 1.5 17C2.32843 17 3 17.6716 3 18.5V22.5C3 23.3284 2.32843 24 1.5 24C0.671573 24 0 23.3284 0 22.5V18.5Z" fill="#EEF1EE"/>
<path d="M8 18.5C8 17.6716 8.67157 17 9.5 17C10.3284 17 11 17.6716 11 18.5V22.5C11 23.3284 10.3284 24 9.5 24C8.67157 24 8 23.3284 8 22.5V18.5Z" fill="#EEF1EE"/>
<path d="M16 18.5C16 17.6716 16.6716 17 17.5 17C18.3284 17 19 17.6716 19 18.5V22.5C19 23.3284 18.3284 24 17.5 24C16.6716 24 16 23.3284 16 22.5V18.5Z" fill="#EEF1EE"/>
<path d="M24 18.5C24 17.6716 24.6716 17 25.5 17C26.3284 17 27 17.6716 27 18.5V22.5C27 23.3284 26.3284 24 25.5 24C24.6716 24 24 23.3284 24 22.5V18.5Z" fill="#EEF1EE"/>
</svg>
