<?xml version="1.0" encoding="UTF-8"?>
<svg id="Capa_1" data-name="Capa 1" xmlns="http://www.w3.org/2000/svg" viewBox="0 0 1689.19 1702.66">
  <g>
    <path d="M825.53,1176.16h171.66c10.42,0,16.91,11.26,11.7,20.26-15.69,27.13-42.59,73.74-61.49,106.55-4.74,8.25-15.36,10.93-23.47,5.95h0c-7.78-4.8-10.35-14.92-5.78-22.83l32.17-55.85c5.21-9.03-1.32-20.3-11.7-20.3h-113.11c-9.34,0-16.91-7.58-16.91-16.91h0c0-9.34,7.58-16.91,16.91-16.91l.03.03Z" style="fill: #5084d2; stroke: #5084d2; stroke-miterlimit: 10;"/>
    <path d="M991.03,1379.08h-171.66c-10.42,0-16.91-11.26-11.7-20.26,15.69-27.13,42.59-73.74,61.49-106.55,4.74-8.25,15.36-10.93,23.47-5.95h0c7.78,4.8,10.35,14.92,5.78,22.83l-32.17,55.85c-5.21,9.03,1.32,20.3,11.7,20.3h113.11c9.34,0,16.91,7.58,16.91,16.91h0c0,9.34-7.58,16.91-16.91,16.91l-.03-.03Z" style="fill: #5084d2; stroke: #5084d2; stroke-miterlimit: 10;"/>
  </g>
  <g>
    <path d="M771.37,1412.94l-23.44,40.59-23.44-40.59h-19.52l37.11,64.27c2.6,4.5,9.1,4.5,11.7,0l37.11-64.27h-19.52Z" style="fill: #5084d2; stroke: #5084d2; stroke-miterlimit: 10;"/>
    <path d="M815.58,1480.59h-16.91v-67.65h16.91v67.65Z" style="fill: #5084d2; stroke: #5084d2; stroke-miterlimit: 10;"/>
    <path d="M933.97,1480.59h-16.91v-67.65h16.91v67.65Z" style="fill: #5084d2; stroke: #5084d2; stroke-miterlimit: 10;"/>
    <path d="M874.68,1438.34c16.47,0,25.37,7.78,25.37,20.09,0,13.87-8.39,22.16-29.02,22.16h-47.05l9.78-16.91h42.42c4.94,0,7.17-.61,7.17-4.16s-2.23-4.33-7.17-4.33h-18.3c-17.39,0-25.37-9.57-25.37-21.21,0-12.75,8.49-21.04,29.02-21.04h46.48l-9.78,16.91h-41.2c-4.84,0-7.75.91-7.75,4.36s2.33,4.13,7.17,4.13h18.23Z" style="fill: #5084d2; stroke: #5084d2; stroke-miterlimit: 10;"/>
    <path d="M1026.89,1446.7c0,23.41-14.14,33.86-42.18,33.86s-42.18-10.49-42.18-33.86,14.07-33.79,42.18-33.79,42.18,10.38,42.18,33.79ZM1010.01,1446.7c0-14.11-7.37-16.74-25.3-16.74s-25.3,2.64-25.3,16.74,7.37,16.85,25.3,16.85,25.3-2.74,25.3-16.85Z" style="fill: #5084d2; stroke: #5084d2; stroke-miterlimit: 10;"/>
    <path d="M1092.34,1477.04l-39.95-36.02v39.54h-16.85v-55.41c0-8.73,5.28-12.24,11.06-12.24,2.44,0,4.9.58,8.12,3.52l39.78,36.02v-39.54h17.15v55.3c0,8.73-5.28,12.35-11.16,12.35-2.54,0-5.01-.58-8.12-3.52h-.03Z" style="fill: #5084d2; stroke: #5084d2; stroke-miterlimit: 10;"/>
    <rect x="722.97" y="1497.5" width="4.03" height="16.91" style="fill: #5084d2; stroke: #5084d2; stroke-miterlimit: 10;"/>
    <rect x="843.93" y="1497.5" width="4.03" height="16.91" style="fill: #5084d2; stroke: #5084d2; stroke-miterlimit: 10;"/>
    <polygon points="743.1 1507.18 748.64 1497.5 752.67 1497.5 752.67 1514.42 748.68 1514.42 748.68 1504.74 743.13 1514.42 737.48 1504.71 737.48 1514.42 733.49 1514.42 733.49 1497.5 737.58 1497.5 743.1 1507.18" style="fill: #5084d2; stroke: #5084d2; stroke-miterlimit: 10;"/>
    <polygon points="768.77 1507.18 774.32 1497.5 778.38 1497.5 778.38 1514.42 774.35 1514.42 774.35 1504.74 768.8 1514.42 763.15 1504.71 763.15 1514.42 759.16 1514.42 759.16 1497.5 763.26 1497.5 768.77 1507.18" style="fill: #5084d2; stroke: #5084d2; stroke-miterlimit: 10;"/>
    <polygon points="788.86 1507.75 795.46 1507.75 795.46 1504.2 788.86 1504.17 788.86 1501.19 798.26 1501.19 798.26 1497.5 784.87 1497.5 784.87 1514.42 798.3 1514.42 798.3 1510.73 788.86 1510.73 788.86 1507.75" style="fill: #5084d2; stroke: #5084d2; stroke-miterlimit: 10;"/>
    <polygon points="877.99 1507.75 884.62 1507.75 884.62 1504.2 877.99 1504.17 877.99 1501.19 887.43 1501.19 887.43 1497.5 874 1497.5 874 1514.42 887.43 1514.42 887.43 1510.73 877.99 1510.73 877.99 1507.75" style="fill: #5084d2; stroke: #5084d2; stroke-miterlimit: 10;"/>
    <path d="M819.3,1502.98c0-3.35-2.47-5.45-6.43-5.45h-8.05v16.91h4.03v-6.22h2.4l3.55,6.16.07.07h4.13l-3.79-6.26c3.99-1.01,4.13-3.38,4.13-5.21h-.03ZM813.15,1504.81h-4.33v-3.65h4.33c1.32,0,2.06.64,2.06,1.83s-.74,1.83-2.06,1.83Z" style="fill: #5084d2; stroke: #5084d2; stroke-miterlimit: 10;"/>
    <path d="M833.71,1504.44l-2.2-.47c-1.56-.34-2.13-.74-2.16-1.52,0-.27.1-.54.3-.74.44-.44,1.25-.68,2.3-.68h0c1.39,0,2.74.41,4.19,1.25l.34.2,1.73-3.01.1-.17-.17-.1c-1.86-1.12-4.26-1.73-6.49-1.73h0c-1.76,0-3.42.44-4.6,1.32-1.22.91-1.89,2.13-1.89,3.52,0,2.67,1.66,4.3,5.21,5.07l2,.44c2.03.44,2.37.81,2.33,1.56-.07.91-1.05,1.45-2.67,1.45h0c-1.79,0-3.75-.54-5.31-1.45l-.41-.24-1.76,3.04-.1.17.17.1c1.93,1.18,4.7,1.89,7.27,1.89h0c2.37,0,4.33-.64,5.58-1.89.85-.85,1.29-1.93,1.29-3.08,0-2.67-1.56-4.23-5.07-4.97l.03.03Z" style="fill: #5084d2; stroke: #5084d2; stroke-miterlimit: 10;"/>
    <polygon points="860.98 1514.42 851.17 1497.5 855.67 1497.5 860.98 1506.67 866.35 1497.5 870.75 1497.5 860.98 1514.42" style="fill: #5084d2; stroke: #5084d2; stroke-miterlimit: 10;"/>
    <polygon points="1063.66 1504.13 1056.22 1504.13 1056.22 1497.5 1052.23 1497.5 1052.23 1514.42 1056.22 1514.42 1056.22 1507.79 1063.62 1507.79 1063.66 1514.25 1063.66 1514.42 1067.68 1514.42 1067.68 1497.5 1063.66 1497.5 1063.66 1504.13" style="fill: #5084d2; stroke: #5084d2; stroke-miterlimit: 10;"/>
    <path d="M1086.22,1506.2c0,3.25-1.29,4.46-4.03,4.46s-4.03-1.25-4.03-4.5v-8.66h-4.03v8.66c0,5.45,2.94,8.25,8.08,8.25s8.12-2.81,8.12-8.22v-8.69h-4.09v8.69h-.03Z" style="fill: #5084d2; stroke: #5084d2; stroke-miterlimit: 10;"/>
    <path d="M1108.85,1505.32c.64-.41,1.66-1.35,1.66-3.31,0-2.84-2.13-4.46-5.89-4.46h-7.85v16.91h8.73c3.86,0,5.89-1.66,5.89-4.8,0-2.57-1.29-3.75-2.5-4.33h-.03ZM1104.55,1503.69h-3.89v-2.5h3.86c1.83,0,2.03.71,2.03,1.25,0,1.12-1.25,1.29-2,1.29v-.03ZM1107.39,1509.04c0,1.15-.68,1.73-2.06,1.73h-4.7v-3.45h4.7c.74,0,1.32.17,1.66.54.27.3.41.68.41,1.18Z" style="fill: #5084d2; stroke: #5084d2; stroke-miterlimit: 10;"/>
    <rect x="965.87" y="1497.5" width="4.03" height="16.91" style="fill: #5084d2; stroke: #5084d2; stroke-miterlimit: 10;"/>
    <rect x="933.8" y="1497.5" width="4.03" height="16.91" style="fill: #5084d2; stroke: #5084d2; stroke-miterlimit: 10;"/>
    <path d="M918.65,1497.5h-5.89v16.91h5.82c5.89,0,9.81-3.38,9.81-8.42,0-2.27-.81-4.3-2.33-5.78-1.76-1.76-4.33-2.71-7.41-2.71ZM916.79,1510.76v-9.61h1.79c3.82.03,5.85,1.73,5.85,4.87s-1.96,4.7-5.82,4.74h-1.83Z" style="fill: #5084d2; stroke: #5084d2; stroke-miterlimit: 10;"/>
    <path d="M955.59,1509.11c-.81,1.01-2.23,1.69-3.69,1.69-2.77,0-4.87-2.06-4.87-4.84s2.1-4.84,4.87-4.84c1.52,0,2.94.64,3.86,1.79l.1.14,2.98-2.33-.14-.14c-1.62-1.96-4.13-3.08-6.8-3.08-4.9,0-8.73,3.72-8.73,8.46s3.82,8.46,8.73,8.46c2.98,0,5.78-1.52,7.51-4.03h0v-4.6h-3.86v3.31h.03Z" style="fill: #5084d2; stroke: #5084d2; stroke-miterlimit: 10;"/>
    <polygon points="990.8 1497.5 976.32 1497.5 976.35 1501.19 981.6 1501.19 981.6 1514.42 985.56 1514.42 985.56 1501.19 990.8 1501.19 990.8 1497.5" style="fill: #5084d2; stroke: #5084d2; stroke-miterlimit: 10;"/>
    <polygon points="1018.53 1497.71 1018.53 1497.5 1014.51 1497.5 1014.51 1514.42 1026.89 1514.42 1026.89 1510.73 1018.5 1510.73 1018.53 1497.71" style="fill: #5084d2; stroke: #5084d2; stroke-miterlimit: 10;"/>
    <path d="M1009.77,1514.45l-9.81-16.91-9.78,16.91h4.4l1.45-2.5h7.75l1.45,2.5h4.53ZM998.1,1508.57l1.93-3.28,1.89,3.28h-3.82Z" style="fill: #5084d2; stroke: #5084d2; stroke-miterlimit: 10;"/>
  </g>
  <path d="M1562.1,269.1c-64.35,1.32-116.6,53.89-117.54,118.25-.26,17.72,3.32,34.57,9.96,49.78,3.25,7.46,2.29,16.08-2.48,22.67l-399.95,552.08c-5.97,8.24-16.64,11.58-26.25,8.23-10.78-3.77-21.81-7.02-33.05-9.72-10.1-2.43-17.33-11.32-17.64-21.7l-15.86-528.51c-.31-10.35,6.32-19.67,16.23-22.7,104.35-31.85,175.96-138.72,151.94-257.77-15.54-77.02-91.76-154-168.66-170.15-143.17-30.06-269.27,78.37-269.27,216.25,0,97.26,62.75,179.86,149.96,209.54,9.43,3.21,15.63,12.25,15.43,22.21l-10.77,531.47c-.21,10.42-7.4,19.39-17.52,21.9-13.45,3.33-26.59,7.45-39.38,12.3-10.22,3.87-21.75.16-27.66-9.03l-245.93-382.22c-5.89-9.16-4.46-21.14,3.29-28.8,53.33-52.72,87.07-125.22,89.28-205.6,4.63-168.72-131.57-309.09-300.35-309.34C118.5,87.95-29.02,258.93,11.14,453.34c23.93,115.82,115.03,206.51,230.89,230.23,51.86,10.62,102.01,7.82,147.68-5.48,10.13-2.95,20.98,1.26,26.36,10.33l237.82,401.02c5.14,8.66,4.04,19.65-2.68,27.15-55.4,61.74-89.11,143.35-89.11,232.83,0,192.6,156.14,348.74,348.74,348.74s348.74-156.14,348.74-348.74c0-86.57-31.55-165.78-83.78-226.75-6.56-7.66-7.42-18.66-2.09-27.22l359.31-575.9c4.54-7.28,12.75-11.5,21.3-10.78,4.37.37,8.81.51,13.3.4,65.8-1.61,118.38-56.71,117.05-122.51-1.34-66-55.93-118.93-122.56-117.57Z" style="fill: none; stroke: #5084d2; stroke-miterlimit: 10; stroke-width: 9px;"/>
  <line x1="494.24" y1="922.51" x2="680.6" y2="816.14" style="fill: none; stroke: #5084d2; stroke-linecap: round; stroke-miterlimit: 10; stroke-width: 10px;"/>
  <line x1="798.72" y1="782.74" x2="1023.66" y2="782.74" style="fill: none; stroke: #5084d2; stroke-linecap: round; stroke-miterlimit: 10; stroke-width: 10px;"/>
  <line x1="1145.07" y1="803.92" x2="1320.13" y2="938.04" style="fill: none; stroke: #5084d2; stroke-linecap: round; stroke-miterlimit: 10; stroke-width: 10px;"/>
</svg>